<?xml version="1.0" encoding="UTF-8" standalone="no"?>
<svg
   xmlns:osb="http://www.openswatchbook.org/uri/2009/osb"
   xmlns:dc="http://purl.org/dc/elements/1.1/"
   xmlns:cc="http://creativecommons.org/ns#"
   xmlns:rdf="http://www.w3.org/1999/02/22-rdf-syntax-ns#"
   xmlns:svg="http://www.w3.org/2000/svg"
   xmlns="http://www.w3.org/2000/svg"
   xmlns:xlink="http://www.w3.org/1999/xlink"
   id="svg8"
   version="1.1"
   viewBox="0 0 53 55"
   height="55mm"
   width="53mm">
  <defs
     id="defs2">
    <linearGradient
       osb:paint="solid"
       id="linearGradient4572">
      <stop
         id="stop4570"
         offset="0"
         style="stop-color:#000000;stop-opacity:1;" />
    </linearGradient>
    <linearGradient
       osb:paint="solid"
       id="linearGradient4564">
      <stop
         id="stop4562"
         offset="0"
         style="stop-color:#000000;stop-opacity:1;" />
    </linearGradient>
    <linearGradient
       osb:paint="solid"
       id="linearGradient4550">
      <stop
         id="stop4548"
         offset="0"
         style="stop-color:#0d0000;stop-opacity:1;" />
    </linearGradient>
    <linearGradient
       gradientTransform="matrix(0.3976778,0,0,0.81539531,68.558859,6.1799218)"
       gradientUnits="userSpaceOnUse"
       y2="151.47174"
       x2="57.195679"
       y1="151.47174"
       x1="49.177589"
       id="linearGradient4574"
       xlink:href="#linearGradient4572" />
  </defs>
  <metadata
     id="metadata5">
    <rdf:RDF>
      <cc:Work
         rdf:about="">
        <dc:format>image/svg+xml</dc:format>
        <dc:type
           rdf:resource="http://purl.org/dc/dcmitype/StillImage" />
        <dc:title></dc:title>
      </cc:Work>
    </rdf:RDF>
  </metadata>
  <g
     transform="translate(0,-242)"
     id="layer1">
    <circle
       r="0.66817379"
       cy="153.60989"
       cx="35.01231"
       id="path3739"
       style="fill:none;stroke-width:0.26458332" />
    <path
       d="m 55.191158,146.25998 a 4.4767647,3.3408689 0 0 1 -2.789225,3.09442"
       id="path4554"
       style="fill:none;stroke-width:0.26499999;stroke-miterlimit:4;stroke-dasharray:none" />
    <path
       d="m 68.821909,170.98242 a 0.46772167,0.66817379 0 0 1 -0.291412,0.61889"
       id="path4556"
       style="fill:none;stroke-width:0.26499999;stroke-miterlimit:4;stroke-dasharray:none" />
    <g
       transform="translate(-83.84435,130.93914)"
       id="g4630">
      <g
         id="g3715"
         transform="matrix(0.96091993,0,0,1,3.2885227,0)">
        <g
           transform="matrix(0.77123835,0,0,0.95368562,19.541418,5.1985584)"
           id="g3707">
          <path
             style="fill:none;stroke:#000000;stroke-width:0.26458332px;stroke-linecap:butt;stroke-linejoin:miter;stroke-opacity:1"
             d="m 134.9801,164.91193 -0.43285,-8.50989 c -0.1884,-3.70395 -20.58743,-1.14311 -20.58743,-1.14311 0,0 0.18899,9.82738 0.18899,12.09524 0,2.26785 -4.7247,0 -4.7247,0 -0.18899,-0.18899 0.18899,-11.90625 0.18899,-11.90625 h -2.07887 c 0,0 -0.18899,4.53571 0.75595,9.82738 0.94494,5.29166 -6.23661,-1.32292 -6.23661,-1.32292 -1.13393,0 -1.32292,-3.02381 -1.32292,-3.02381 0,0 -0.37797,-9.07143 0,-12.09524 0.37798,-3.0238 -4.346725,-8.12648 -4.346725,-8.12648 l -5.858631,-0.94495 -4.770351,-1.39447 -1.454579,-2.85668 -0.530002,-4.27438 2.849041,-2.62477 3.149936,-3.59077 c 0,0 -1.395117,-2.8599 -1.579902,-5.93803 -0.152779,-2.54499 0.90949,-5.30186 0.82395,-6.15721 -0.188986,-1.88988 1.700893,0.75596 1.700893,0.75596 l 3.212798,10.39434 v 0 c 0,0 2.072474,-8.31005 1.505509,-12.84576 0,0 0.544285,-1.01196 2.812139,8.24846"
             id="path3701" />
          <path
             style="fill:none;stroke:#000000;stroke-width:0.26458332px;stroke-linecap:butt;stroke-linejoin:miter;stroke-opacity:1"
             d="m 148.16666,151.47915 -0.73158,-4.75597 5.62437,5.77084 1.50006,-4.92286 -6.12621,-5.21203 -4.32116,-2.77016 c -1.6323,-1.04642 0.31445,-0.57046 -5.44361,-0.85355 -0.80919,-0.42589 -3.37747,-0.42092 -5.78502,-0.50142 -3.05395,-0.10203 -7.06485,-0.023 -9.24271,-0.0184 -3.26204,0.007 -5.91247,-0.28977 -8.83515,-0.17539 -4.11708,0.16113 -4.81458,-1.30208 -4.81458,-1.30208 L 97.895829,124.45387 v 0 l 0.348897,-4.97528"
             id="path3703" />
        </g>
        <path
           id="path3709"
           d="m 123.64325,162.47269 v 0 c 0,0 0.52288,3.55856 2.96785,2.61362 2.44498,-0.94494 1.12845,-0.75596 1.12845,-0.75596 l 0.37616,-9.82737 1.12844,0.18898 0.18808,9.26042 c 0,0 4.13766,2.64583 4.13766,-0.37798 0,-3.02381 0.24334,-13.91235 0.24334,-13.91235"
           style="fill:none;stroke:#000000;stroke-width:0.26394358px;stroke-linecap:butt;stroke-linejoin:miter;stroke-opacity:1" />
      </g>
      <ellipse
         id="path3717"
         style="fill:none;stroke-width:0.25936183"
         cx="90.480476"
         cy="129.75609"
         rx="1.1557107"
         ry="1.0022607" />
      <ellipse
         style="fill:none;stroke:url(#linearGradient4574);stroke-width:0.15090223;stroke-miterlimit:4;stroke-dasharray:none"
         id="path4568"
         cx="89.710007"
         cy="129.68927"
         rx="1.5943073"
         ry="1.5255122" />
      <ellipse
         style="fill:#00ffff;stroke-width:0.27770612;stroke-miterlimit:4;stroke-dasharray:none"
         id="path4576"
         cx="89.388985"
         cy="129.95656"
         rx="1.0915046"
         ry="1.0690781" />
      <path
         style="fill:#dd55ff;fill-opacity:1;stroke:#000000;stroke-width:0.1312038;stroke-miterlimit:4;stroke-dasharray:none;stroke-opacity:1"
         d="m 105.21116,165.5064 c -0.17632,-0.0342 -0.6902,-0.23663 -1.14195,-0.44979 l -0.82135,-0.38757 0.0941,-5.6792 0.0941,-5.6792 h -0.91048 -0.91047 l 0.002,1.90429 c 0.002,2.09091 0.1418,4.1864 0.45616,6.84878 0.24013,2.03379 0.16389,2.47225 -0.42987,2.47225 -0.19981,0 -0.63251,-0.17769 -0.96158,-0.39486 -0.65936,-0.43516 -3.15334,-2.84779 -3.388366,-3.27785 -0.386597,-0.7074 -0.458161,-1.95912 -0.492916,-8.62169 l -0.0352,-6.74856 -0.402714,-1.13589 c -0.411058,-1.15944 -1.613055,-3.46211 -2.37176,-4.54358 l -0.421879,-0.60136 -2.140694,-0.4396 c -1.384248,-0.28426 -2.759769,-0.67271 -3.892647,-1.0993 -0.963574,-0.36284 -1.766945,-0.67617 -1.785266,-0.6963 -0.01833,-0.0201 -0.262954,-0.61203 -0.543626,-1.31534 -0.438814,-1.09958 -0.531338,-1.5115 -0.660364,-2.93997 -0.08253,-0.91366 -0.177312,-1.79592 -0.210633,-1.96056 -0.04655,-0.23002 0.172046,-0.57047 0.943871,-1.46998 0.55245,-0.64385 1.564802,-1.9895 2.24967,-2.99035 l 1.245213,-1.8197 -0.2007,-0.58572 c -0.915629,-2.67213 -1.167076,-5.69915 -0.712158,-8.5733 0.148577,-0.93871 0.270141,-1.94598 0.270141,-2.23838 0,-0.2924 0.05742,-0.53164 0.127607,-0.53164 0.07018,0 0.294325,0.23951 0.498088,0.53224 0.306948,0.44096 0.576558,1.39204 1.572124,5.54584 0.788666,3.29056 1.257399,5.01361 1.363889,5.01361 0.08924,0 0.162632,-0.0451 0.1631,-0.10023 5.08e-4,-0.0551 0.116596,-0.79178 0.258059,-1.63702 0.456822,-2.72947 0.775313,-5.629 0.85769,-7.80839 0.09239,-2.44432 0.09118,-2.44531 0.810795,0.65893 0.924231,3.98689 0.946513,4.17723 0.800277,6.83609 l -0.130383,2.37065 4.697205,6.1384 c 2.583457,3.37612 4.869047,6.24716 5.079087,6.38008 0.21004,0.13293 0.64677,0.30532 0.97052,0.3831 0.34724,0.0834 4.1168,0.19898 9.19226,0.2818 4.73199,0.0772 8.92144,0.19701 9.30989,0.26621 1.67984,0.2993 2.43518,0.38718 3.36301,0.39129 0.95695,0.004 1.00483,0.0201 1.55344,0.51421 0.31132,0.28041 1.19607,1.02602 1.96609,1.65691 1.17185,0.96011 4.27349,4.165 5.50581,5.68909 l 0.32833,0.40607 -0.48029,2.01735 c -0.26417,1.10954 -0.52135,2.00182 -0.57152,1.98284 -0.0842,-0.0319 -0.64421,-0.75468 -3.16862,-4.08996 -0.51813,-0.68456 -0.96748,-1.21818 -0.99857,-1.18583 -0.0311,0.0324 0.0647,1.07453 0.21294,2.31596 0.24519,2.05376 0.26272,2.69663 0.19457,7.13481 -0.13586,8.84797 -0.19094,10.01271 -0.48814,10.32199 -0.35879,0.37339 -1.36052,0.25323 -2.46591,-0.29577 l -0.84195,-0.41817 v -1.44152 c 0,-0.79283 -0.038,-2.89144 -0.0846,-4.66357 l -0.0846,-3.22205 -0.65381,-0.11096 c -0.5356,-0.0909 -0.66762,-0.074 -0.73027,0.0934 -0.042,0.1124 -0.15006,2.39931 -0.24,5.08203 -0.0958,2.85638 -0.21589,4.91214 -0.28986,4.96085 -0.40908,0.26941 -1.50926,0.54799 -1.83162,0.46379 -0.51331,-0.13407 -1.03523,-0.77063 -1.35024,-1.64681 -0.2364,-0.65751 -0.29384,-1.3004 -0.4535,-5.0749 -0.10054,-2.37711 -0.24294,-4.43896 -0.31645,-4.58188 -0.21281,-0.41383 -1.17756,-0.92598 -2.20159,-1.16876 -0.74601,-0.17686 -1.58048,-0.22247 -3.9627,-0.21657 -2.82218,0.007 -4.71696,0.14643 -8.06552,0.59356 l -1.19546,0.15962 0.0914,6.04007 0.0914,6.04008 -0.30492,0.22225 c -0.30656,0.22346 -0.42772,0.23818 -1.01781,0.12363 z M 90.19379,131.261 c 0.949251,-0.27443 1.459662,-1.29055 1.099213,-2.1883 -0.285215,-0.71039 -0.880813,-1.04638 -1.737629,-0.98024 -0.604273,0.0466 -0.751401,0.11735 -1.123605,0.54001 -0.74325,0.84401 -0.502286,2.0235 0.511217,2.50236 0.627791,0.29662 0.652572,0.29912 1.250804,0.12617 z"
         id="path4599" />
    </g>
  </g>
</svg>
