<?xml version="1.0" encoding="UTF-8" standalone="no"?>
<svg
   xmlns:osb="http://www.openswatchbook.org/uri/2009/osb"
   xmlns:dc="http://purl.org/dc/elements/1.1/"
   xmlns:cc="http://creativecommons.org/ns#"
   xmlns:rdf="http://www.w3.org/1999/02/22-rdf-syntax-ns#"
   xmlns:svg="http://www.w3.org/2000/svg"
   xmlns="http://www.w3.org/2000/svg"
   xmlns:xlink="http://www.w3.org/1999/xlink"
   id="svg8"
   version="1.1"
   viewBox="0 0 53 55"
   height="55mm"
   width="53mm">
  <defs
     id="defs2">
    <linearGradient
       id="linearGradient4818">
      <stop
         id="stop4814"
         offset="0"
         style="stop-color:#000000;stop-opacity:1;" />
      <stop
         id="stop4816"
         offset="1"
         style="stop-color:#000000;stop-opacity:0;" />
    </linearGradient>
    <linearGradient
       id="linearGradient4714">
      <stop
         id="stop4710"
         offset="0"
         style="stop-color:#dd55ff;stop-opacity:1;" />
      <stop
         id="stop4712"
         offset="1"
         style="stop-color:#dd55ff;stop-opacity:0;" />
    </linearGradient>
    <linearGradient
       osb:paint="solid"
       id="linearGradient4572">
      <stop
         id="stop4570"
         offset="0"
         style="stop-color:#000000;stop-opacity:1;" />
    </linearGradient>
    <linearGradient
       osb:paint="solid"
       id="linearGradient4564">
      <stop
         id="stop4562"
         offset="0"
         style="stop-color:#000000;stop-opacity:1;" />
    </linearGradient>
    <linearGradient
       osb:paint="solid"
       id="linearGradient4550">
      <stop
         id="stop4548"
         offset="0"
         style="stop-color:#0d0000;stop-opacity:1;" />
    </linearGradient>
    <linearGradient
       y2="138.50622"
       x2="136.72259"
       y1="138.50622"
       x1="84.044836"
       gradientUnits="userSpaceOnUse"
       id="linearGradient4718"
       xlink:href="#linearGradient4714" />
    <linearGradient
       y2="138.50622"
       x2="136.72259"
       y1="138.50622"
       x1="84.044836"
       gradientUnits="userSpaceOnUse"
       id="linearGradient4720"
       xlink:href="#linearGradient4714" />
    <linearGradient
       y2="138.50622"
       x2="136.72259"
       y1="138.50622"
       x1="84.044836"
       gradientUnits="userSpaceOnUse"
       id="linearGradient4722"
       xlink:href="#linearGradient4714" />
    <linearGradient
       y2="138.50622"
       x2="136.72259"
       y1="138.50622"
       x1="84.044836"
       gradientUnits="userSpaceOnUse"
       id="linearGradient4724"
       xlink:href="#linearGradient4714" />
    <linearGradient
       y2="138.50622"
       x2="136.72259"
       y1="138.50622"
       x1="84.044836"
       gradientUnits="userSpaceOnUse"
       id="linearGradient4726"
       xlink:href="#linearGradient4714" />
    <linearGradient
       gradientTransform="matrix(0.96770098,0,0,0.97240439,-10.636952,145.34463)"
       y2="138.50622"
       x2="136.72259"
       y1="138.50622"
       x1="84.044836"
       gradientUnits="userSpaceOnUse"
       id="linearGradient4728"
       xlink:href="#linearGradient4714" />
    <linearGradient
       gradientTransform="matrix(0.96770098,0,0,0.97240439,-10.636952,145.34463)"
       y2="138.50622"
       x2="136.72259"
       y1="138.50622"
       x1="84.044836"
       gradientUnits="userSpaceOnUse"
       id="linearGradient4730"
       xlink:href="#linearGradient4714" />
    <linearGradient
       gradientTransform="matrix(0.96770098,0,0,0.97240439,-10.636952,145.34463)"
       y2="138.50622"
       x2="136.72259"
       y1="138.50622"
       x1="84.044836"
       gradientUnits="userSpaceOnUse"
       id="linearGradient4732"
       xlink:href="#linearGradient4714" />
    <linearGradient
       gradientTransform="matrix(0.96770098,0,0,0.97240439,-10.636952,145.34463)"
       y2="138.50622"
       x2="136.72259"
       y1="138.50622"
       x1="84.044836"
       gradientUnits="userSpaceOnUse"
       id="linearGradient4734"
       xlink:href="#linearGradient4714" />
    <radialGradient
       r="26.982303"
       fy="288.8498"
       fx="61.154861"
       cy="288.8498"
       cx="61.154861"
       gradientTransform="matrix(1,0,0,0.94503922,49.66751,13.386143)"
       gradientUnits="userSpaceOnUse"
       id="radialGradient4824"
       xlink:href="#linearGradient4818" />
    <radialGradient
       r="26.982303"
       fy="288.8498"
       fx="61.154861"
       cy="288.8498"
       cx="61.154861"
       gradientTransform="matrix(1,0,0,0.94503922,49.66751,13.386143)"
       gradientUnits="userSpaceOnUse"
       id="radialGradient4826"
       xlink:href="#linearGradient4818" />
    <radialGradient
       r="26.982303"
       fy="288.8498"
       fx="61.154861"
       cy="288.8498"
       cx="61.154861"
       gradientTransform="matrix(1,0,0,0.94503922,49.66751,13.386143)"
       gradientUnits="userSpaceOnUse"
       id="radialGradient4828"
       xlink:href="#linearGradient4818" />
    <radialGradient
       r="26.982303"
       fy="288.8498"
       fx="61.154861"
       cy="288.8498"
       cx="61.154861"
       gradientTransform="matrix(1,0,0,0.94503922,49.66751,13.386143)"
       gradientUnits="userSpaceOnUse"
       id="radialGradient4830"
       xlink:href="#linearGradient4818" />
    <radialGradient
       r="26.982303"
       fy="288.8498"
       fx="61.154861"
       cy="288.8498"
       cx="61.154861"
       gradientTransform="matrix(1,0,0,0.94503922,49.66751,13.386143)"
       gradientUnits="userSpaceOnUse"
       id="radialGradient4832"
       xlink:href="#linearGradient4818" />
    <radialGradient
       r="26.982303"
       fy="288.8498"
       fx="61.154861"
       cy="288.8498"
       cx="61.154861"
       gradientTransform="matrix(1,0,0,0.94503922,49.66751,13.386143)"
       gradientUnits="userSpaceOnUse"
       id="radialGradient4834"
       xlink:href="#linearGradient4818" />
    <radialGradient
       r="26.982303"
       fy="288.8498"
       fx="61.154861"
       cy="288.8498"
       cx="61.154861"
       gradientTransform="matrix(1,0,0,0.94503922,0,15.875412)"
       gradientUnits="userSpaceOnUse"
       id="radialGradient4836"
       xlink:href="#linearGradient4818" />
  </defs>
  <metadata
     id="metadata5">
    <rdf:RDF>
      <cc:Work
         rdf:about="">
        <dc:format>image/svg+xml</dc:format>
        <dc:type
           rdf:resource="http://purl.org/dc/dcmitype/StillImage" />
        <dc:title></dc:title>
      </cc:Work>
    </rdf:RDF>
  </metadata>
  <g
     transform="translate(0,-242)"
     id="layer1">
    <circle
       r="0.66817379"
       cy="153.60989"
       cx="35.01231"
       id="path3739"
       style="fill:none;stroke-width:0.26458332" />
    <path
       d="m 55.191158,146.25998 a 4.4767647,3.3408689 0 0 1 -2.789225,3.09442"
       id="path4554"
       style="fill:none;stroke-width:0.26499999;stroke-miterlimit:4;stroke-dasharray:none" />
    <path
       d="m 68.821909,170.98242 a 0.46772167,0.66817379 0 0 1 -0.291412,0.61889"
       id="path4556"
       style="fill:none;stroke-width:0.26499999;stroke-miterlimit:4;stroke-dasharray:none" />
    <g
       transform="translate(-157.40523,20.035996)"
       id="g4782">
      <g
         id="g4768">
        <g
           id="g4754">
          <g
             style="fill:url(#linearGradient4726);fill-opacity:1;stroke:#000000;stroke-opacity:1"
             id="g3715"
             transform="matrix(0.92988316,0,0,0.97240439,-7.4546455,145.34463)">
            <g
               style="fill:url(#linearGradient4722);fill-opacity:1;stroke:#000000;stroke-opacity:1"
               transform="matrix(0.77123835,0,0,0.95368562,19.541418,5.1985584)"
               id="g3707">
              <path
                 style="fill:url(#linearGradient4718);fill-opacity:1;stroke:#000000;stroke-width:0.26458332px;stroke-linecap:butt;stroke-linejoin:miter;stroke-opacity:1"
                 d="m 134.9801,164.91193 -0.43285,-8.50989 c -0.1884,-3.70395 -20.58743,-1.14311 -20.58743,-1.14311 0,0 0.18899,9.82738 0.18899,12.09524 0,2.26785 -4.7247,0 -4.7247,0 -0.18899,-0.18899 0.18899,-11.90625 0.18899,-11.90625 h -2.07887 c 0,0 -0.18899,4.53571 0.75595,9.82738 0.94494,5.29166 -6.23661,-1.32292 -6.23661,-1.32292 -1.13393,0 -1.32292,-3.02381 -1.32292,-3.02381 0,0 -0.37797,-9.07143 0,-12.09524 0.37798,-3.0238 -4.346725,-8.12648 -4.346725,-8.12648 l -5.858631,-0.94495 -4.770351,-1.39447 -1.454579,-2.85668 -0.530002,-4.27438 2.849041,-2.62477 3.149936,-3.59077 c 0,0 -1.395117,-2.8599 -1.579902,-5.93803 -0.152779,-2.54499 0.90949,-5.30186 0.82395,-6.15721 -0.188986,-1.88988 1.700893,0.75596 1.700893,0.75596 l 3.212798,10.39434 v 0 c 0,0 2.072474,-8.31005 1.505509,-12.84576 0,0 0.544285,-1.01196 2.812139,8.24846"
                 id="path3701" />
              <path
                 style="fill:url(#linearGradient4720);fill-opacity:1;stroke:#000000;stroke-width:0.26458332px;stroke-linecap:butt;stroke-linejoin:miter;stroke-opacity:1"
                 d="m 148.16666,151.47915 -0.73158,-4.75597 5.62437,5.77084 1.50006,-4.92286 -6.12621,-5.21203 -4.32116,-2.77016 c -1.6323,-1.04642 0.31445,-0.57046 -5.44361,-0.85355 -0.80919,-0.42589 -3.37747,-0.42092 -5.78502,-0.50142 -3.05395,-0.10203 -7.06485,-0.023 -9.24271,-0.0184 -3.26204,0.007 -5.91247,-0.28977 -8.83515,-0.17539 -4.11708,0.16113 -4.81458,-1.30208 -4.81458,-1.30208 L 97.895829,124.45387 v 0 l 0.348897,-4.97528"
                 id="path3703" />
            </g>
            <path
               id="path3709"
               d="m 123.64325,162.47269 v 0 c 0,0 0.52288,3.55856 2.96785,2.61362 2.44498,-0.94494 1.12845,-0.75596 1.12845,-0.75596 l 0.37616,-9.82737 1.12844,0.18898 0.18808,9.26042 c 0,0 4.13766,2.64583 4.13766,-0.37798 0,-3.02381 0.24334,-13.91235 0.24334,-13.91235"
               style="fill:url(#linearGradient4724);fill-opacity:1;stroke:#000000;stroke-width:0.26394358px;stroke-linecap:butt;stroke-linejoin:miter;stroke-opacity:1" />
          </g>
          <ellipse
             id="path3717"
             style="fill:url(#linearGradient4728);fill-opacity:1;stroke:#000000;stroke-width:0.25159392;stroke-opacity:1"
             cx="76.921097"
             cy="271.52002"
             rx="1.1183823"
             ry="0.9746027" />
          <ellipse
             style="fill:url(#linearGradient4730);fill-opacity:1;stroke:#000000;stroke-width:0.14638267;stroke-miterlimit:4;stroke-dasharray:none;stroke-opacity:1"
             id="path4568"
             cx="76.175507"
             cy="271.45505"
             rx="1.5428127"
             ry="1.4834148" />
          <ellipse
             style="fill:url(#linearGradient4732);fill-opacity:1;stroke:#000000;stroke-width:0.26938877;stroke-miterlimit:4;stroke-dasharray:none;stroke-opacity:1"
             id="path4576"
             cx="75.864853"
             cy="271.71497"
             rx="1.0562501"
             ry="1.0395762" />
          <path
             style="fill:url(#linearGradient4734);fill-opacity:1;stroke:#000000;stroke-width:0.12727423;stroke-miterlimit:4;stroke-dasharray:none;stroke-opacity:1"
             d="m 91.175991,306.28378 c -0.170625,-0.0333 -0.667908,-0.2301 -1.105066,-0.43738 l -0.794822,-0.37687 0.09106,-5.52248 0.09106,-5.52248 H 88.577152 87.69609 l 0.0019,1.85174 c 0.0019,2.03321 0.13722,4.07087 0.441426,6.65978 0.232374,1.97767 0.158597,2.40403 -0.415985,2.40403 -0.193357,0 -0.612081,-0.17279 -0.930522,-0.38396 -0.638063,-0.42316 -3.05149,-2.76921 -3.278925,-3.1874 -0.374111,-0.68788 -0.443363,-1.90506 -0.476996,-8.38377 l -0.03406,-6.56233 -0.389706,-1.10454 c -0.397782,-1.12745 -1.560955,-3.36657 -2.295155,-4.4182 l -0.408253,-0.58476 -2.071551,-0.42747 c -1.339538,-0.27642 -2.670631,-0.65415 -3.766919,-1.06897 -0.932451,-0.35283 -1.709874,-0.65751 -1.727603,-0.67708 -0.01774,-0.0195 -0.254461,-0.59514 -0.526068,-1.27905 -0.42464,-1.06923 -0.514176,-1.46978 -0.639034,-2.85884 -0.07986,-0.88844 -0.171585,-1.74636 -0.20383,-1.90645 -0.04505,-0.22367 0.166489,-0.55473 0.913385,-1.42942 0.534606,-0.62608 1.51426,-1.9346 2.177008,-2.90783 l 1.204993,-1.76948 -0.194217,-0.56956 c -0.886055,-2.59839 -1.129381,-5.54188 -0.689156,-8.33671 0.143778,-0.91281 0.261415,-1.89228 0.261415,-2.17661 0,-0.28433 0.05557,-0.51697 0.123486,-0.51697 0.06791,0 0.284818,0.2329 0.482,0.51755 0.297034,0.42879 0.557936,1.35363 1.521346,5.3928 0.763193,3.19975 1.216786,4.87526 1.319837,4.87526 0.08636,0 0.157379,-0.0439 0.157832,-0.0975 4.91e-4,-0.0536 0.11283,-0.76993 0.249724,-1.59184 0.442067,-2.65415 0.750271,-5.47367 0.829987,-7.59292 0.08941,-2.37686 0.08823,-2.37783 0.784607,0.64075 0.89438,3.87687 0.915942,4.06196 0.774429,6.64744 l -0.126172,2.30523 4.54549,5.96901 c 2.500014,3.28296 4.711782,6.07477 4.915038,6.20402 0.203256,0.12926 0.62588,0.29689 0.939173,0.37253 0.336024,0.0811 3.983831,0.19349 8.895356,0.27402 4.57915,0.0751 8.63329,0.19157 9.00919,0.25887 1.62559,0.29104 2.35653,0.37649 3.25439,0.38049 0.92604,0.004 0.97238,0.0195 1.50327,0.50002 0.30126,0.27267 1.15743,0.9977 1.90258,1.61118 1.134,0.93362 4.13546,4.05007 5.32798,5.5321 l 0.31773,0.39486 -0.46478,1.96168 c -0.25564,1.07893 -0.50451,1.94658 -0.55306,1.92813 -0.0815,-0.031 -0.6234,-0.73386 -3.06628,-3.9771 -0.50139,-0.66567 -0.93623,-1.18456 -0.96632,-1.1531 -0.0301,0.0315 0.0626,1.04487 0.20607,2.25204 0.23727,1.99709 0.25423,2.62222 0.18828,6.93793 -0.13147,8.6038 -0.18477,9.7364 -0.47237,10.03714 -0.3472,0.36309 -1.31658,0.24625 -2.38626,-0.2876 l -0.81476,-0.40663 v -1.40175 c 0,-0.77095 -0.0368,-2.81164 -0.0819,-4.53487 l -0.0819,-3.13314 -0.63269,-0.10789 c -0.5183,-0.0884 -0.64605,-0.072 -0.70668,0.0908 -0.0406,0.1093 -0.14521,2.3331 -0.23225,4.94179 -0.0927,2.77755 -0.20892,4.77658 -0.2805,4.82395 -0.39586,0.26197 -1.46051,0.53287 -1.77246,0.45099 -0.49673,-0.13037 -1.00179,-0.74936 -1.30663,-1.60137 -0.22876,-0.63936 -0.28435,-1.26451 -0.43885,-4.93485 -0.0973,-2.31151 -0.23509,-4.31646 -0.30623,-4.45544 -0.20593,-0.40241 -1.13952,-0.90043 -2.13048,-1.13651 -0.72191,-0.17198 -1.52943,-0.21633 -3.83471,-0.21059 -2.731023,0.007 -4.564603,0.14239 -7.805008,0.57718 l -1.156848,0.15521 0.08845,5.87339 0.08845,5.8734 -0.295072,0.21612 c -0.296658,0.2173 -0.413905,0.23161 -0.984935,0.12022 z M 76.643667,272.9834 c 0.918591,-0.26685 1.412516,-1.25493 1.063709,-2.12791 -0.276002,-0.69079 -0.852363,-1.0175 -1.681505,-0.95319 -0.584755,0.0453 -0.727131,0.11411 -1.087313,0.52511 -0.719244,0.82072 -0.486063,1.96766 0.494705,2.4333 0.607514,0.28844 0.631494,0.29087 1.210404,0.12269 z"
             id="path4599" />
        </g>
      </g>
      <ellipse
         style="fill:#ff0000;fill-opacity:1;stroke:#000000;stroke-width:0.23361117;stroke-miterlimit:4;stroke-dasharray:none;stroke-opacity:1"
         id="path4756"
         cx="75.878716"
         cy="271.6756"
         rx="1.2441171"
         ry="1.3386111" />
    </g>
    <path
       id="path4786"
       d="m 168.79679,224.65599 -8.83264,-11.31882 0.40862,-4.68712 -5.40055,-5.37599 2.3041,9.63937 -5.69504,-6.45036 c 0,0 -5.29167,-2.26785 -4.91369,-1.32291 0.37797,0.94494 3.2128,3.40178 3.2128,3.40178 l 4.41416,5.2478 -4.30224,5.7641 1.42327,6.61311 7.62269,2.16951 3.16349,5.93588 -4.19489,6.96454 -0.56696,6.04762 5.66442,2.60912 3.7906,-8.01937 1.6308,0.1326 -1.63642,6.03361 1.58563,4.87875 3.17969,0.47785 -0.0116,-11.56547 14.90103,0.53922 -3.59077,8.88244 1.32292,2.64584 2.44174,-3.11562 4.15887,-7.74978 1.20424,0.0233 0.1638,9.06976 v 0 0 0 l 3.18164,2.90626 0.22369,-21.11721 4.03358,5.35169 1.07578,-4.5653 c 0,0 -6.30945,-9.5045 -11.3964,-8.19398 -5.08694,1.31051 -20.56635,-1.85223 -20.56635,-1.85223 z"
       style="fill:none;stroke:#000000;stroke-width:0.26458332px;stroke-linecap:butt;stroke-linejoin:miter;stroke-opacity:1" />
    <path
       id="path4788"
       d="m 130.37623,310.06809 -1.37016,-1.23857 v -4.49801 -4.49802 l -0.42523,-0.11396 c -1.09404,-0.29319 -1.08317,-0.30585 -3.33135,3.88135 -1.2087,2.2512 -2.62142,4.59634 -3.23081,5.36318 l -1.0829,1.36272 -0.50057,-1.02064 c -0.27531,-0.56135 -0.50142,-1.12506 -0.50246,-1.25269 -0.001,-0.12763 0.78113,-2.16422 1.73816,-4.52576 0.95703,-2.36154 1.69495,-4.33881 1.63983,-4.39393 -0.0755,-0.0755 -13.05464,-0.65293 -14.95162,-0.66514 -0.30783,-0.002 -0.33073,0.39854 -0.33073,5.78304 v 5.78517 l -0.61421,-0.11046 c -0.33782,-0.0608 -0.9592,-0.1635 -1.38085,-0.22833 l -0.76664,-0.11787 -0.76896,-2.32293 -0.76895,-2.32292 0.83307,-3.07024 c 0.45819,-1.68863 0.80903,-3.08985 0.77964,-3.11382 -0.0294,-0.024 -0.48419,-0.0985 -1.01068,-0.16555 l -0.95725,-0.12197 -1.85991,3.97063 c -1.02295,2.18384 -1.910376,3.96746 -1.972056,3.9636 -0.0617,-0.004 -1.26026,-0.5424 -2.663495,-1.19675 -2.294925,-1.07017 -2.547708,-1.23565 -2.51522,-1.64663 0.01987,-0.25129 0.13457,-1.56247 0.254895,-2.91374 l 0.218773,-2.45684 2.060212,-3.41719 c 1.133115,-1.87946 2.060205,-3.52236 2.060205,-3.65089 0,-0.281 -3.011815,-5.92656 -3.242865,-6.07866 -0.089,-0.0586 -1.755786,-0.55603 -3.703916,-1.1054 -1.94813,-0.54936 -3.607271,-1.05989 -3.686979,-1.1345 -0.07971,-0.0746 -0.443114,-1.5193 -0.807567,-3.21043 l -0.662638,-3.07477 2.085009,-2.8238 c 1.146757,-1.55308 2.105472,-2.89591 2.130483,-2.98405 0.07129,-0.25125 -3.321124,-4.248 -5.507381,-6.48847 -1.089038,-1.11605 -1.929969,-2.07928 -1.868733,-2.14051 0.114231,-0.11423 3.322632,0.92488 4.043375,1.30954 0.220856,0.11787 1.658631,1.6388 3.195056,3.37986 1.536427,1.74105 2.86527,3.16555 2.952985,3.16555 0.08772,0 0.159486,-0.12023 0.159486,-0.26718 0,-0.23037 -1.704568,-7.4628 -2.008209,-8.52077 -0.05966,-0.20789 0.969806,0.68508 2.287714,1.98438 l 2.396195,2.36235 -0.1166,1.88988 c -0.0641,1.03943 -0.15775,2.10249 -0.20804,2.36235 -0.0757,0.39112 0.68331,1.46488 4.408341,6.23643 l 4.4998,5.76395 1.22121,0.22653 c 7.29948,1.35401 13.82285,2.06001 17.00172,1.84006 3.95511,-0.27367 4.8895,-0.21992 5.97726,0.34381 2.09265,1.08452 4.68875,3.51145 6.84209,6.39626 l 0.78957,1.05779 -0.40541,1.77703 c -0.22298,0.97737 -0.46527,1.84458 -0.53841,1.92713 -0.0731,0.0825 -1.01794,-1.02304 -2.09956,-2.45685 l -1.96658,-2.60693 -0.1362,7.843 c -0.0749,4.31366 -0.15996,9.05242 -0.18899,10.53058 l -0.0528,2.68756 z"
       style="fill:#ff00f7;fill-opacity:0.70558376;stroke:#000000;stroke-width:0.5;stroke-miterlimit:4;stroke-dasharray:none;stroke-opacity:1" />
    <g
       style="fill:#ff00f7;fill-opacity:0.70558376;stroke:url(#radialGradient4836);stroke-width:0.5;stroke-miterlimit:4;stroke-dasharray:none;stroke-opacity:1"
       id="g4790">
      <path
         points="91.244891,276.39442 93.352648,274.7266 93.352648,273.91652 91.244891,275.56709 "
         d="m 91.244891,275.56709 v 0.82733 l 2.107757,-1.66782 v -0.81008 z"
         style="fill:#ff00f7;fill-opacity:0.70558376;fill-rule:evenodd;stroke:url(#radialGradient4824);stroke-width:0.5;stroke-linejoin:round;stroke-miterlimit:4;stroke-dasharray:none"
         id="path4792" />
      <path
         points="93.154422,278.41068 95.273378,276.65863 93.352648,274.7266 91.244891,276.39442 "
         d="m 91.244891,276.39442 1.909531,2.01626 2.118956,-1.75205 -1.92073,-1.93203 z"
         style="fill:#ff00f7;fill-opacity:0.70558376;fill-rule:evenodd;stroke:url(#radialGradient4826);stroke-width:0.5;stroke-linejoin:round;stroke-miterlimit:4;stroke-dasharray:none"
         id="path4800" />
      <path
         points="95.273378,275.82856 95.273378,276.65863 93.352648,274.7266 93.352648,273.91652 "
         d="m 93.352648,273.91652 1.92073,1.91204 v 0.83007 l -1.92073,-1.93203 z"
         style="fill:#ff00f7;fill-opacity:0.70558376;fill-rule:evenodd;stroke:url(#radialGradient4828);stroke-width:0.5;stroke-linejoin:round;stroke-miterlimit:4;stroke-dasharray:none"
         id="path4802" />
      <path
         points="93.154422,277.56249 95.273378,275.82856 93.352648,273.91652 91.244891,275.56709 "
         d="m 91.244891,275.56709 1.909531,1.9954 2.118956,-1.73393 -1.92073,-1.91204 z"
         style="fill:#ff00f7;fill-opacity:0.70558376;fill-rule:evenodd;stroke:url(#radialGradient4830);stroke-width:0.5;stroke-linejoin:round;stroke-miterlimit:4;stroke-dasharray:none"
         id="path4794" />
      <path
         points="93.154422,278.41068 95.273378,276.65863 95.273378,275.82856 93.154422,277.56249 "
         d="m 93.154422,277.56249 v 0.84819 l 2.118956,-1.75205 v -0.83007 z"
         style="fill:#ff00f7;fill-opacity:0.70558376;fill-rule:evenodd;stroke:url(#radialGradient4832);stroke-width:0.5;stroke-linejoin:round;stroke-miterlimit:4;stroke-dasharray:none"
         id="path4798" />
      <path
         points="93.154422,277.56249 93.154422,278.41068 91.244891,276.39442 91.244891,275.56709 "
         d="m 91.244891,275.56709 1.909531,1.9954 v 0.84819 l -1.909531,-2.01626 z"
         style="fill:#ff00f7;fill-opacity:0.70558376;fill-rule:evenodd;stroke:url(#radialGradient4834);stroke-width:0.5;stroke-linejoin:round;stroke-miterlimit:4;stroke-dasharray:none"
         id="path4796" />
    </g>
    <path
       style="fill:none;stroke:#000000;stroke-width:0.26458332px;stroke-linecap:butt;stroke-linejoin:miter;stroke-opacity:1"
       d="m 135.14409,339.57237 -11.66747,-9.05096 -5.82799,-4.30915 -9.93626,1.2386 10.99755,4.3477 -7.77391,-0.59173 c 0,0 -6.61458,5.85864 -5.66964,5.48066 l 5.29166,-1.32292 5.17012,0.33411 -1.27843,6.89803 4.25809,3.02233 6.67776,-2.3662 3.16349,5.93588 -1.92704,11.87823 -2.83482,5.29167 5.09745,1.09721 4.35757,-10.6652 1.6308,0.1326 -1.63641,6.03361 0.26271,5.44571 4.5026,-0.0891 -0.0116,-11.56547 14.90105,0.53922 -3.59077,5.10268 2.26785,5.29166 4.53572,1e-5 -1.716,-5.38348 2.83596,-4.34799 1.20424,0.0233 c 0.62432,1.95227 -4.7e-4,4.30386 0.37435,6.33158 0.516,2.79147 1.49034,4.43907 1.49034,4.43907 l 3.93759,-0.49552 -2.23315,-19.41632 2.52167,7.99752 1.83173,-4.94327 c 0,0 -5.55349,-11.77236 -10.64044,-10.46184 -5.08694,1.31051 -20.56637,-1.85223 -20.56637,-1.85223 z"
       id="path4865" />
    <g
       transform="translate(18.976136,11.22532)"
       id="g4914">
      <path
         id="path4867"
         d="m -123.32613,377.18544 -0.32818,-10.94085 2.2985,-4.8761 3.10392,-6.13195 -10.35811,10.7733 2.24246,-8.71821 3.02381,-4.5357 c 0.56454,-0.84681 -7.9375,7.37052 -7.9375,7.37052 l -1.63346,4.68084 -4.49122,2.36231 -1.41156,6.8021 5.16586,3.30344 1.46259,7.25879 -5.5178,2.8068 -1.88988,7.37054 5.66441,5.44394 1.90072,-9.34228 3.89866,-2.51324 -1.06945,5.46665 c -0.49324,8.28053 -2.75697,6.3736 -0.49324,8.28053 l 5.25856,-0.65607 2.06727,-8.73065 c 3.88931,0.70922 3.87767,1.75121 12.06622,-0.40578 -1.22796,2.19128 -2.7366,3.93209 -2.83336,5.74485 -0.09,1.68674 -0.49099,3.62784 -0.9464,5.78343 l 5.07026,-0.21585 1.32287,-4.88136 1.38333,-5.65748 2.34488,0.15694 c 0,0 1.01498,-1.0236 0.19901,5.13737 l 0.0107,7.37331 5.785553,-1.81566 -0.248528,-6.38859 1.553575,-13.31399 5.734473,4.78473 1.831732,-6.45518 c 0,0 -8.577307,-4.7798 -13.664255,-3.46928 -5.08694,1.31051 -20.56637,-1.85223 -20.56637,-1.85223 z"
         style="fill:none;stroke:#000000;stroke-width:0.26458332px;stroke-linecap:butt;stroke-linejoin:miter;stroke-opacity:1" />
      <path
         style="fill:none;stroke:#000000;stroke-width:0.27160776px;stroke-linecap:butt;stroke-linejoin:miter;stroke-opacity:1"
         d="m 106.39028,396.61217 0.80575,-8.343 5.5113,-2.54941 3.67088,-6.26272 -11.68102,4.38247 2.80942,-4.80583 6.99256,-4.77974 c 0.85385,-0.58365 -10.58333,0.59745 -10.58333,0.59745 l -2.95638,5.92846 -7.704016,0.0996 -1.789531,7.16808 4.031928,6.07019 c -0.01644,4.40857 -0.593255,3.43299 -1.939187,9.24259 l -4.572873,2.5595 -4.157736,6.77132 4.530484,6.53346 2.656682,-7.45504 5.221567,-2.25015 -2.581355,5.36246 c 0,0 -2.945958,5.12327 -0.682228,7.1328 l 4.880584,2.29597 -0.196719,-8.6509 3.96488,-2.7402 c 2.15206,3.55371 4.59564,2.9406 10.74723,10.50469 -1.77765,3.75389 0.69267,9.06066 -0.11232,12.15355 l 5.1801,-0.30114 0.55637,-6.97339 v 0 l 0.48817,-3.01613 c 0,0 0.3278,-3.47632 -0.48817,3.01613 l -0.55637,6.97339 5.0296,0.47651 1.29971,-9.12625 2.14903,-4.99094 c 0,0 0.82635,5.63964 3.0942,7.6312 -0.18898,3.78396 3.59192,-6.5404 3.59192,-6.5404 l -7.77876,-12.81081 c -5.44593,-4.71434 -12.43988,-10.31645 -12.43988,-10.31645 z"
         id="path4872" />
      <path
         style="fill:none;stroke:#000000;stroke-width:0.26458332px;stroke-linecap:butt;stroke-linejoin:miter;stroke-opacity:1"
         d="m -69.604953,399.63607 -0.328179,-10.94085 2.298498,-4.8761 3.103917,-6.13195 -10.358105,10.7733 2.24246,-8.71821 3.02381,-4.5357 c 0.564538,-0.84681 -7.937501,7.37052 -7.937501,7.37052 l -1.633458,4.68084 -4.491224,2.36231 -1.411556,6.8021 5.165853,3.30344 1.462598,7.25879 -5.517809,2.8068 -1.889879,7.37054 5.664416,5.44394 1.900722,-9.34228 3.898658,-2.51324 -1.069451,5.46665 c -0.493242,8.28053 -2.75697,6.3736 -0.493242,8.28053 l 5.25856,-0.65607 2.067269,-8.73065 c 3.889312,0.70922 3.877668,1.75121 12.066221,-0.40578 -1.22796,2.19128 -2.736598,3.93209 -2.833356,5.74485 -0.09003,1.68674 -0.490994,3.62784 -0.946402,5.78343 l 5.070256,-0.21585 1.322872,-4.88136 1.383331,-5.65748 2.344884,0.15694 c 0,0 1.014979,-1.0236 0.199007,5.13737 l 0.01065,7.37331 5.785551,-1.81566 -0.248528,-6.38859 1.553575,-13.31399 5.734473,4.78473 1.831732,-6.45518 c 0,0 -8.577307,-4.7798 -13.664257,-3.46928 -5.086935,1.31051 -20.566363,-1.85223 -20.566363,-1.85223 z"
         id="path4916" />
    </g>
    <g
       id="g4922">
      <path
         style="fill:none;stroke:#000000;stroke-width:0.26458332px;stroke-linecap:butt;stroke-linejoin:miter;stroke-opacity:1"
         d="m 22.469399,432.7775 -0.328179,-10.94085 2.298498,-4.8761 3.103917,-6.13195 -10.358105,10.7733 2.24246,-8.71821 3.02381,-4.5357 c 0.564538,-0.84681 -7.937501,7.37052 -7.937501,7.37052 l -1.633458,4.68084 -4.4912236,2.36231 -1.411556,6.8021 5.1658526,3.30344 1.462598,7.25879 -7.3886953,-1.60315 -7.9034434,0.42154 4.0607985,6.24574 4.707052,-0.92329 7.2395272,0.15946 -5.6130331,2.79395 c -3.299572,4.40513 -5.5633,2.4982 -3.299572,4.40513 l 4.1894819,1.34845 8.6153722,-6.45886 c 0,0 11.49485,4.023 19.683403,1.86601 3.048352,3.12672 8.926503,4.8094 8.926503,4.8094 0,0 8.729805,1.35606 8.274397,3.51165 l 4.001178,-4.09127 -7.363389,-2.34229 -5.893487,-3.76329 c 1.884754,-1.5554 0.144815,-1.5688 2.470798,-1.81159 l 12.438683,5.36879 3.647395,-6.09197 -14.413813,-3.04772 -1.65366,-4.895 3.863587,-7.50967 -5.384546,-5.11883 c 0,0 1.311666,9.92002 -3.775284,11.23054 -5.086935,1.31051 -20.566363,-1.85223 -20.566363,-1.85223 z"
         id="path4918" />
    </g>
    <g
       transform="translate(-2.271791,-10.289877)"
       id="g4927">
      <path
         style="fill:none;stroke:#000000;stroke-width:0.26458332px;stroke-linecap:butt;stroke-linejoin:miter;stroke-opacity:1"
         d="m 192.4734,400.37619 -18.42518,9.72832 -5.86828,-0.47173 -7.59962,1.96213 12.65258,2.52267 -5.36848,0.0764 c 0,0 -5.90153,7.02479 -5.00147,6.54974 l 5.29166,-2.7929 3.96741,0.33411 2.73061,5.42805 5.59444,-0.0513 2.26781,-4.50436 0.74539,-3.55223 3.75445,-1.60358 1.6811,5.86467 -0.94494,6.4256 3.96352,0.24676 3.60162,-10.94868 1.6308,0.1326 -1.63641,6.03361 0.26271,5.44571 4.5026,-0.0891 0.83985,-10.82326 5.64593,1.22867 7.55322,0.0802 -0.37797,4.72471 0.85044,4.6302 4.63021,0.37799 -0.67656,-5.0055 0.75709,-5.57642 1.20424,0.0233 c 0.62432,1.95227 -4.7e-4,4.30386 0.37435,6.33158 0.516,2.79147 1.49034,4.43907 1.49034,4.43907 l 3.93759,-0.49552 -2.23315,-19.41632 2.52167,7.99752 1.83173,-4.94327 c 0,0 -4.23057,-11.39438 -9.31752,-10.08386 -5.08694,1.31051 -26.83378,-0.22569 -26.83378,-0.22569 z"
         id="path4924" />
      <path
         id="path5093"
         d="m 192.4734,400.37619 -18.42518,9.72832 -5.86828,-0.47173 -7.59962,1.96213 12.65258,2.52267 -5.36848,0.0764 c 0,0 -5.90153,7.02479 -5.00147,6.54974 l 5.29166,-2.7929 3.96741,0.33411 2.73061,5.42805 5.59444,-0.0513 2.26781,-4.50436 0.74539,-3.55223 3.75445,-1.60358 1.6811,5.86467 -0.94494,6.4256 3.96352,0.24676 3.60162,-10.94868 1.6308,0.1326 -1.63641,6.03361 0.26271,5.44571 4.5026,-0.0891 0.83985,-10.82326 5.64593,1.22867 7.55322,0.0802 -0.37797,4.72471 0.85044,4.6302 4.63021,0.37799 -0.67656,-5.0055 0.75709,-5.57642 1.20424,0.0233 c 0.62432,1.95227 -4.7e-4,4.30386 0.37435,6.33158 0.516,2.79147 1.49034,4.43907 1.49034,4.43907 l 3.93759,-0.49552 -2.23315,-19.41632 2.52167,7.99752 1.83173,-4.94327 c 0,0 -4.23057,-11.39438 -9.31752,-10.08386 -5.08694,1.31051 -26.83378,-0.22569 -26.83378,-0.22569 z"
         style="fill:none;stroke:#000000;stroke-width:0.26458332px;stroke-linecap:butt;stroke-linejoin:miter;stroke-opacity:1" />
    </g>
    <g
       id="g5099"
       transform="translate(-4.1426777,21.381562)">
      <path
         id="path5095"
         d="m 192.4734,400.37619 -18.42518,9.72832 -5.86828,-0.47173 -7.59962,1.96213 12.65258,2.52267 -5.36848,0.0764 c 0,0 -5.90153,7.02479 -5.00147,6.54974 l 5.29166,-2.7929 3.96741,0.33411 2.73061,5.42805 5.59444,-0.0513 2.26781,-4.50436 0.74539,-3.55223 3.75445,-1.60358 1.6811,5.86467 -0.94494,6.4256 3.96352,0.24676 3.60162,-10.94868 1.6308,0.1326 -1.63641,6.03361 0.26271,5.44571 4.5026,-0.0891 0.83985,-10.82326 5.64593,1.22867 7.55322,0.0802 -0.37797,4.72471 0.85044,4.6302 4.63021,0.37799 -0.67656,-5.0055 0.75709,-5.57642 1.20424,0.0233 c 0.62432,1.95227 -4.7e-4,4.30386 0.37435,6.33158 0.516,2.79147 1.49034,4.43907 1.49034,4.43907 l 3.93759,-0.49552 -2.23315,-19.41632 2.52167,7.99752 1.83173,-4.94327 c 0,0 -4.23057,-11.39438 -9.31752,-10.08386 -5.08694,1.31051 -26.83378,-0.22569 -26.83378,-0.22569 z"
         style="fill:none;stroke:#000000;stroke-width:0.26458332px;stroke-linecap:butt;stroke-linejoin:miter;stroke-opacity:1" />
    </g>
    <path
       id="path5101"
       d="m 185.12744,463.44184 8.76965,0.68997 3.42648,0.26958 6.35275,0.0322 12.79233,0.425 4.86108,0.85003 12.5365,8.35862 -0.63962,3.9668 -11.5131,-4.9585 v 2.26675 l 11.00141,4.25014 c 0,0 2.94223,4.81682 1.02339,4.10847 -1.91886,-0.70836 -13.94365,-3.25844 -13.94365,-3.25844 0,0 -26.60805,-0.14167 -27.11974,-1.13338 -0.5117,-0.99169 -9.46634,6.51689 -9.46634,6.51689 0,0 -3.45391,-1.13337 -2.43054,-2.26675 1.02339,-1.13337 4.47161,-6.51183 4.47161,-6.51183 -2.94942,-1.35572 -1.16345,-2.54887 -4.22718,-3.39712 l -5.10552,-0.99975 -2.8143,-0.99169 -2.55847,0.99169 -2.55847,1.41672 0.25585,7.08357 -4.98901,-8.78362 c 0,0 4.00097,-1.5711 5.50353,-3.1134 1.23054,-1.26307 -0.0992,-2.55347 0.7647,-2.55347 1.91886,0 -10.36178,2.40842 -10.36178,2.40842 l 4.73316,-6.65856 8.44295,0.9917 4.47763,-3.38994 5.11414,0.19623 z"
       style="fill:none;stroke:#000000;stroke-width:0.26653793px;stroke-linecap:butt;stroke-linejoin:miter;stroke-opacity:1" />
    <g
       id="g5965">
      <path
         style="fill:none;stroke:#000000;stroke-width:0.26458332px;stroke-linecap:butt;stroke-linejoin:miter;stroke-opacity:1"
         d="m 35.279578,347.51394 2.939963,11.75986 6.414471,10.42351 5.34539,14.69982 8.018084,2.93997 -2.672694,4.54358 -8.285355,-4.27631 -9.621704,2.40542 -6.949006,6.1472 -4.810853,-3.20723 8.018087,-5.61266 -2.004522,-3.0736 -8.340953,6.97036 1.659215,-6.03493"
         id="path5940" />
      <path
         style="fill:none;stroke:#000000;stroke-width:0.26458332px;stroke-linecap:butt;stroke-linejoin:miter;stroke-opacity:1"
         d="m 24.989701,385.19893 6.949007,-4.54356 -1.469982,-7.21628 -5.479025,11.75984 -3.60814,0.93546 7.483548,-21.78248 c -0.475029,-5.7103 -4.009043,-8.01808 -4.009043,-8.01808 l -2.672695,-1.87088 -0.53454,-8.55263 4.276313,-2.93996 -2.138156,-9.88897 3.207234,-8.01809 2.138157,16.03617 4.276312,-14.43255 3.207234,8.28535 -1.336347,12.56167 v 0 0"
         id="path5942" />
    </g>
  </g>
</svg>
